<mxfile host="app.diagrams.net" agent="Mozilla/5.0 (Windows NT 10.0; Win64; x64) AppleWebKit/537.36 (KHTML, like Gecko) Chrome/137.0.0.0 Safari/537.36 Edg/137.0.0.0" version="26.3.0">
  <diagram name="第 1 页" id="sgLHbW3q-VtfmZkZAssp">
    <mxGraphModel dx="445" dy="270" grid="1" gridSize="10" guides="1" tooltips="1" connect="1" arrows="1" fold="1" page="1" pageScale="1" pageWidth="827" pageHeight="1169" math="0" shadow="0">
      <root>
        <mxCell id="0" />
        <mxCell id="1" parent="0" />
        <mxCell id="IY-vPQJXDDbbcd6xCSo9-67" value="" style="verticalLabelPosition=bottom;verticalAlign=top;html=1;shape=mxgraph.basic.diag_round_rect;dx=6;whiteSpace=wrap;fillColor=#fff2cc;strokeColor=#d6b656;" vertex="1" parent="1">
          <mxGeometry x="220" y="650" width="290" height="220" as="geometry" />
        </mxCell>
        <mxCell id="IY-vPQJXDDbbcd6xCSo9-20" style="edgeStyle=orthogonalEdgeStyle;rounded=0;orthogonalLoop=1;jettySize=auto;html=1;exitX=1;exitY=0.5;exitDx=0;exitDy=0;entryX=0;entryY=0.5;entryDx=0;entryDy=0;" edge="1" parent="1" source="IY-vPQJXDDbbcd6xCSo9-1" target="IY-vPQJXDDbbcd6xCSo9-4">
          <mxGeometry relative="1" as="geometry">
            <Array as="points">
              <mxPoint x="300" y="345" />
              <mxPoint x="300" y="310" />
            </Array>
          </mxGeometry>
        </mxCell>
        <mxCell id="IY-vPQJXDDbbcd6xCSo9-21" style="edgeStyle=orthogonalEdgeStyle;rounded=0;orthogonalLoop=1;jettySize=auto;html=1;entryX=0;entryY=0.5;entryDx=0;entryDy=0;" edge="1" parent="1" source="IY-vPQJXDDbbcd6xCSo9-1" target="IY-vPQJXDDbbcd6xCSo9-6">
          <mxGeometry relative="1" as="geometry">
            <Array as="points">
              <mxPoint x="300" y="345" />
              <mxPoint x="300" y="380" />
            </Array>
          </mxGeometry>
        </mxCell>
        <mxCell id="IY-vPQJXDDbbcd6xCSo9-22" style="edgeStyle=orthogonalEdgeStyle;rounded=0;orthogonalLoop=1;jettySize=auto;html=1;exitX=0.5;exitY=1;exitDx=0;exitDy=0;entryX=0.5;entryY=0;entryDx=0;entryDy=0;" edge="1" parent="1" source="IY-vPQJXDDbbcd6xCSo9-1" target="IY-vPQJXDDbbcd6xCSo9-2">
          <mxGeometry relative="1" as="geometry" />
        </mxCell>
        <mxCell id="IY-vPQJXDDbbcd6xCSo9-45" style="edgeStyle=orthogonalEdgeStyle;rounded=0;orthogonalLoop=1;jettySize=auto;html=1;entryX=0.5;entryY=0;entryDx=0;entryDy=0;" edge="1" parent="1" source="IY-vPQJXDDbbcd6xCSo9-1" target="IY-vPQJXDDbbcd6xCSo9-9">
          <mxGeometry relative="1" as="geometry">
            <Array as="points">
              <mxPoint x="300" y="345" />
              <mxPoint x="300" y="250" />
              <mxPoint x="480" y="250" />
            </Array>
          </mxGeometry>
        </mxCell>
        <mxCell id="IY-vPQJXDDbbcd6xCSo9-1" value="Embeding 1" style="whiteSpace=wrap;html=1;aspect=fixed;fillColor=#f8cecc;strokeColor=#b85450;" vertex="1" parent="1">
          <mxGeometry x="210" y="310" width="70" height="70" as="geometry" />
        </mxCell>
        <mxCell id="IY-vPQJXDDbbcd6xCSo9-23" style="edgeStyle=orthogonalEdgeStyle;rounded=0;orthogonalLoop=1;jettySize=auto;html=1;exitX=1;exitY=0.5;exitDx=0;exitDy=0;entryX=0;entryY=0.5;entryDx=0;entryDy=0;" edge="1" parent="1" source="IY-vPQJXDDbbcd6xCSo9-2" target="IY-vPQJXDDbbcd6xCSo9-5">
          <mxGeometry relative="1" as="geometry">
            <Array as="points">
              <mxPoint x="300" y="495" />
              <mxPoint x="300" y="460" />
            </Array>
          </mxGeometry>
        </mxCell>
        <mxCell id="IY-vPQJXDDbbcd6xCSo9-24" style="edgeStyle=orthogonalEdgeStyle;rounded=0;orthogonalLoop=1;jettySize=auto;html=1;" edge="1" parent="1" source="IY-vPQJXDDbbcd6xCSo9-2" target="IY-vPQJXDDbbcd6xCSo9-7">
          <mxGeometry relative="1" as="geometry">
            <Array as="points">
              <mxPoint x="300" y="495" />
              <mxPoint x="300" y="530" />
            </Array>
          </mxGeometry>
        </mxCell>
        <mxCell id="IY-vPQJXDDbbcd6xCSo9-46" style="edgeStyle=orthogonalEdgeStyle;rounded=0;orthogonalLoop=1;jettySize=auto;html=1;entryX=0.5;entryY=1;entryDx=0;entryDy=0;" edge="1" parent="1" source="IY-vPQJXDDbbcd6xCSo9-2" target="IY-vPQJXDDbbcd6xCSo9-13">
          <mxGeometry relative="1" as="geometry">
            <Array as="points">
              <mxPoint x="300" y="495" />
              <mxPoint x="300" y="590" />
              <mxPoint x="480" y="590" />
            </Array>
          </mxGeometry>
        </mxCell>
        <mxCell id="IY-vPQJXDDbbcd6xCSo9-2" value="Embeding 2" style="whiteSpace=wrap;html=1;aspect=fixed;fillColor=#f8cecc;strokeColor=#b85450;" vertex="1" parent="1">
          <mxGeometry x="210" y="460" width="70" height="70" as="geometry" />
        </mxCell>
        <mxCell id="IY-vPQJXDDbbcd6xCSo9-19" style="edgeStyle=orthogonalEdgeStyle;rounded=0;orthogonalLoop=1;jettySize=auto;html=1;exitX=0.5;exitY=1;exitDx=0;exitDy=0;entryX=0.5;entryY=0;entryDx=0;entryDy=0;" edge="1" parent="1" source="IY-vPQJXDDbbcd6xCSo9-3" target="IY-vPQJXDDbbcd6xCSo9-1">
          <mxGeometry relative="1" as="geometry" />
        </mxCell>
        <mxCell id="IY-vPQJXDDbbcd6xCSo9-3" value="Input" style="text;html=1;align=center;verticalAlign=middle;whiteSpace=wrap;rounded=0;spacing=3;textShadow=1;" vertex="1" parent="1">
          <mxGeometry x="215" y="260" width="60" height="30" as="geometry" />
        </mxCell>
        <mxCell id="IY-vPQJXDDbbcd6xCSo9-27" style="edgeStyle=orthogonalEdgeStyle;rounded=0;orthogonalLoop=1;jettySize=auto;html=1;exitX=1;exitY=0.5;exitDx=0;exitDy=0;entryX=0.5;entryY=0;entryDx=0;entryDy=0;" edge="1" parent="1" source="IY-vPQJXDDbbcd6xCSo9-4" target="IY-vPQJXDDbbcd6xCSo9-9">
          <mxGeometry relative="1" as="geometry">
            <mxPoint x="510" y="300" as="targetPoint" />
          </mxGeometry>
        </mxCell>
        <mxCell id="IY-vPQJXDDbbcd6xCSo9-4" value="Mamba" style="rounded=1;whiteSpace=wrap;html=1;fillColor=#ffe6cc;strokeColor=#d79b00;" vertex="1" parent="1">
          <mxGeometry x="350" y="290" width="80" height="40" as="geometry" />
        </mxCell>
        <mxCell id="IY-vPQJXDDbbcd6xCSo9-25" style="edgeStyle=orthogonalEdgeStyle;rounded=0;orthogonalLoop=1;jettySize=auto;html=1;exitX=1;exitY=0.5;exitDx=0;exitDy=0;entryX=0.5;entryY=0;entryDx=0;entryDy=0;" edge="1" parent="1" source="IY-vPQJXDDbbcd6xCSo9-5" target="IY-vPQJXDDbbcd6xCSo9-13">
          <mxGeometry relative="1" as="geometry" />
        </mxCell>
        <mxCell id="IY-vPQJXDDbbcd6xCSo9-5" value="Mamba" style="rounded=1;whiteSpace=wrap;html=1;fillColor=#d5e8d4;strokeColor=#82b366;" vertex="1" parent="1">
          <mxGeometry x="350" y="440" width="80" height="40" as="geometry" />
        </mxCell>
        <mxCell id="IY-vPQJXDDbbcd6xCSo9-28" style="edgeStyle=orthogonalEdgeStyle;rounded=0;orthogonalLoop=1;jettySize=auto;html=1;exitX=1;exitY=0.5;exitDx=0;exitDy=0;entryX=0.5;entryY=1;entryDx=0;entryDy=0;" edge="1" parent="1" source="IY-vPQJXDDbbcd6xCSo9-6" target="IY-vPQJXDDbbcd6xCSo9-9">
          <mxGeometry relative="1" as="geometry" />
        </mxCell>
        <mxCell id="IY-vPQJXDDbbcd6xCSo9-6" value="Mamba" style="rounded=1;whiteSpace=wrap;html=1;fillColor=#d5e8d4;strokeColor=#82b366;" vertex="1" parent="1">
          <mxGeometry x="350" y="360" width="80" height="40" as="geometry" />
        </mxCell>
        <mxCell id="IY-vPQJXDDbbcd6xCSo9-26" style="edgeStyle=orthogonalEdgeStyle;rounded=0;orthogonalLoop=1;jettySize=auto;html=1;entryX=0.5;entryY=1;entryDx=0;entryDy=0;" edge="1" parent="1" source="IY-vPQJXDDbbcd6xCSo9-7" target="IY-vPQJXDDbbcd6xCSo9-13">
          <mxGeometry relative="1" as="geometry" />
        </mxCell>
        <mxCell id="IY-vPQJXDDbbcd6xCSo9-7" value="Mamba" style="rounded=1;whiteSpace=wrap;html=1;fillColor=#ffe6cc;strokeColor=#d79b00;" vertex="1" parent="1">
          <mxGeometry x="350" y="510" width="80" height="40" as="geometry" />
        </mxCell>
        <mxCell id="IY-vPQJXDDbbcd6xCSo9-8" value="" style="group" vertex="1" connectable="0" parent="1">
          <mxGeometry x="470" y="335" width="20" height="20" as="geometry" />
        </mxCell>
        <mxCell id="IY-vPQJXDDbbcd6xCSo9-9" value="" style="ellipse;whiteSpace=wrap;html=1;aspect=fixed;" vertex="1" parent="IY-vPQJXDDbbcd6xCSo9-8">
          <mxGeometry width="20" height="20" as="geometry" />
        </mxCell>
        <mxCell id="IY-vPQJXDDbbcd6xCSo9-10" value="" style="endArrow=none;html=1;rounded=0;fontColor=#46495D;exitX=1;exitY=0.5;exitDx=0;exitDy=0;entryX=0;entryY=0.5;entryDx=0;entryDy=0;" edge="1" parent="IY-vPQJXDDbbcd6xCSo9-8" source="IY-vPQJXDDbbcd6xCSo9-9" target="IY-vPQJXDDbbcd6xCSo9-9">
          <mxGeometry width="50" height="50" relative="1" as="geometry">
            <mxPoint x="27" y="-187" as="sourcePoint" />
            <mxPoint x="13" y="-173" as="targetPoint" />
          </mxGeometry>
        </mxCell>
        <mxCell id="IY-vPQJXDDbbcd6xCSo9-11" value="" style="endArrow=none;html=1;rounded=0;fontColor=#46495D;exitX=0.5;exitY=0;exitDx=0;exitDy=0;entryX=0.5;entryY=1;entryDx=0;entryDy=0;" edge="1" parent="IY-vPQJXDDbbcd6xCSo9-8" source="IY-vPQJXDDbbcd6xCSo9-9" target="IY-vPQJXDDbbcd6xCSo9-9">
          <mxGeometry width="50" height="50" relative="1" as="geometry">
            <mxPoint x="30" as="sourcePoint" />
            <mxPoint x="10" as="targetPoint" />
            <Array as="points" />
          </mxGeometry>
        </mxCell>
        <mxCell id="IY-vPQJXDDbbcd6xCSo9-12" value="" style="group" vertex="1" connectable="0" parent="1">
          <mxGeometry x="470" y="485" width="20" height="20" as="geometry" />
        </mxCell>
        <mxCell id="IY-vPQJXDDbbcd6xCSo9-13" value="" style="ellipse;whiteSpace=wrap;html=1;aspect=fixed;" vertex="1" parent="IY-vPQJXDDbbcd6xCSo9-12">
          <mxGeometry width="20" height="20" as="geometry" />
        </mxCell>
        <mxCell id="IY-vPQJXDDbbcd6xCSo9-14" value="" style="endArrow=none;html=1;rounded=0;fontColor=#46495D;exitX=1;exitY=0.5;exitDx=0;exitDy=0;entryX=0;entryY=0.5;entryDx=0;entryDy=0;" edge="1" parent="IY-vPQJXDDbbcd6xCSo9-12" source="IY-vPQJXDDbbcd6xCSo9-13" target="IY-vPQJXDDbbcd6xCSo9-13">
          <mxGeometry width="50" height="50" relative="1" as="geometry">
            <mxPoint x="27" y="-187" as="sourcePoint" />
            <mxPoint x="13" y="-173" as="targetPoint" />
          </mxGeometry>
        </mxCell>
        <mxCell id="IY-vPQJXDDbbcd6xCSo9-15" value="" style="endArrow=none;html=1;rounded=0;fontColor=#46495D;exitX=0.5;exitY=0;exitDx=0;exitDy=0;entryX=0.5;entryY=1;entryDx=0;entryDy=0;" edge="1" parent="IY-vPQJXDDbbcd6xCSo9-12" source="IY-vPQJXDDbbcd6xCSo9-13" target="IY-vPQJXDDbbcd6xCSo9-13">
          <mxGeometry width="50" height="50" relative="1" as="geometry">
            <mxPoint x="30" as="sourcePoint" />
            <mxPoint x="10" as="targetPoint" />
            <Array as="points" />
          </mxGeometry>
        </mxCell>
        <mxCell id="IY-vPQJXDDbbcd6xCSo9-30" style="edgeStyle=orthogonalEdgeStyle;rounded=0;orthogonalLoop=1;jettySize=auto;html=1;entryX=0.5;entryY=1;entryDx=0;entryDy=0;" edge="1" parent="1" source="IY-vPQJXDDbbcd6xCSo9-16" target="IY-vPQJXDDbbcd6xCSo9-18">
          <mxGeometry relative="1" as="geometry" />
        </mxCell>
        <mxCell id="IY-vPQJXDDbbcd6xCSo9-16" value="Projection 1" style="rounded=0;whiteSpace=wrap;html=1;" vertex="1" parent="1">
          <mxGeometry x="530" y="480" width="80" height="30" as="geometry" />
        </mxCell>
        <mxCell id="IY-vPQJXDDbbcd6xCSo9-33" style="edgeStyle=orthogonalEdgeStyle;rounded=0;orthogonalLoop=1;jettySize=auto;html=1;entryX=0.5;entryY=0;entryDx=0;entryDy=0;" edge="1" parent="1" source="IY-vPQJXDDbbcd6xCSo9-17" target="IY-vPQJXDDbbcd6xCSo9-34">
          <mxGeometry relative="1" as="geometry">
            <mxPoint x="710" y="390" as="targetPoint" />
          </mxGeometry>
        </mxCell>
        <mxCell id="IY-vPQJXDDbbcd6xCSo9-17" value="Projection 2" style="rounded=0;whiteSpace=wrap;html=1;" vertex="1" parent="1">
          <mxGeometry x="670" y="330" width="80" height="30" as="geometry" />
        </mxCell>
        <mxCell id="IY-vPQJXDDbbcd6xCSo9-32" style="edgeStyle=orthogonalEdgeStyle;rounded=0;orthogonalLoop=1;jettySize=auto;html=1;" edge="1" parent="1" source="IY-vPQJXDDbbcd6xCSo9-18" target="IY-vPQJXDDbbcd6xCSo9-17">
          <mxGeometry relative="1" as="geometry" />
        </mxCell>
        <mxCell id="IY-vPQJXDDbbcd6xCSo9-18" value="Connection" style="ellipse;whiteSpace=wrap;html=1;fillColor=#e1d5e7;strokeColor=#9673a6;" vertex="1" parent="1">
          <mxGeometry x="520" y="312.5" width="100" height="65" as="geometry" />
        </mxCell>
        <mxCell id="IY-vPQJXDDbbcd6xCSo9-29" style="edgeStyle=orthogonalEdgeStyle;rounded=0;orthogonalLoop=1;jettySize=auto;html=1;entryX=0;entryY=0.5;entryDx=0;entryDy=0;" edge="1" parent="1" source="IY-vPQJXDDbbcd6xCSo9-13" target="IY-vPQJXDDbbcd6xCSo9-16">
          <mxGeometry relative="1" as="geometry" />
        </mxCell>
        <mxCell id="IY-vPQJXDDbbcd6xCSo9-31" style="edgeStyle=orthogonalEdgeStyle;rounded=0;orthogonalLoop=1;jettySize=auto;html=1;exitX=1;exitY=0.5;exitDx=0;exitDy=0;" edge="1" parent="1" source="IY-vPQJXDDbbcd6xCSo9-9" target="IY-vPQJXDDbbcd6xCSo9-18">
          <mxGeometry relative="1" as="geometry" />
        </mxCell>
        <mxCell id="IY-vPQJXDDbbcd6xCSo9-34" value="Output" style="text;html=1;align=center;verticalAlign=middle;whiteSpace=wrap;rounded=0;spacing=3;textShadow=1;" vertex="1" parent="1">
          <mxGeometry x="680" y="390" width="60" height="30" as="geometry" />
        </mxCell>
        <mxCell id="IY-vPQJXDDbbcd6xCSo9-36" value="" style="html=1;shadow=0;dashed=0;align=center;verticalAlign=middle;shape=mxgraph.arrows2.uTurnArrow;dy=3.5;arrowHead=35;dx2=25.25;fillColor=#ffe6cc;strokeColor=#d79b00;" vertex="1" parent="1">
          <mxGeometry x="310" y="260" width="20" height="70" as="geometry" />
        </mxCell>
        <mxCell id="IY-vPQJXDDbbcd6xCSo9-41" value="" style="html=1;shadow=0;dashed=0;align=center;verticalAlign=middle;shape=mxgraph.arrows2.uTurnArrow;dy=3.5;arrowHead=35;dx2=25.25;fillColor=#d5e8d4;strokeColor=#82b366;rotation=-180;" vertex="1" parent="1">
          <mxGeometry x="450" y="290" width="20" height="70" as="geometry" />
        </mxCell>
        <mxCell id="IY-vPQJXDDbbcd6xCSo9-43" value="" style="html=1;shadow=0;dashed=0;align=center;verticalAlign=middle;shape=mxgraph.arrows2.uTurnArrow;dy=3.5;arrowHead=35;dx2=25.25;fillColor=#d5e8d4;strokeColor=#82b366;rotation=-180;" vertex="1" parent="1">
          <mxGeometry x="450" y="510" width="20" height="70" as="geometry" />
        </mxCell>
        <mxCell id="IY-vPQJXDDbbcd6xCSo9-44" value="" style="html=1;shadow=0;dashed=0;align=center;verticalAlign=middle;shape=mxgraph.arrows2.uTurnArrow;dy=3.5;arrowHead=35;dx2=25.25;fillColor=#ffe6cc;strokeColor=#d79b00;" vertex="1" parent="1">
          <mxGeometry x="310" y="480" width="20" height="70" as="geometry" />
        </mxCell>
        <mxCell id="IY-vPQJXDDbbcd6xCSo9-47" value="" style="ellipse;whiteSpace=wrap;html=1;aspect=fixed;fillColor=#000000;strokeWidth=0;" vertex="1" parent="1">
          <mxGeometry x="297" y="342" width="5" height="5" as="geometry" />
        </mxCell>
        <mxCell id="IY-vPQJXDDbbcd6xCSo9-48" value="" style="ellipse;whiteSpace=wrap;html=1;aspect=fixed;fillColor=#000000;strokeWidth=0;" vertex="1" parent="1">
          <mxGeometry x="297" y="492" width="5" height="5" as="geometry" />
        </mxCell>
        <mxCell id="IY-vPQJXDDbbcd6xCSo9-80" style="edgeStyle=orthogonalEdgeStyle;rounded=0;orthogonalLoop=1;jettySize=auto;html=1;exitX=1;exitY=0.5;exitDx=0;exitDy=0;entryX=0;entryY=0.5;entryDx=0;entryDy=0;" edge="1" parent="1" source="IY-vPQJXDDbbcd6xCSo9-52" target="IY-vPQJXDDbbcd6xCSo9-56">
          <mxGeometry relative="1" as="geometry">
            <Array as="points">
              <mxPoint x="420" y="722" />
              <mxPoint x="420" y="763" />
            </Array>
          </mxGeometry>
        </mxCell>
        <mxCell id="IY-vPQJXDDbbcd6xCSo9-52" value="Mamba" style="rounded=1;whiteSpace=wrap;html=1;fillColor=#d5e8d4;strokeColor=#82b366;" vertex="1" parent="1">
          <mxGeometry x="320" y="702" width="50" height="40" as="geometry" />
        </mxCell>
        <mxCell id="IY-vPQJXDDbbcd6xCSo9-81" style="edgeStyle=orthogonalEdgeStyle;rounded=0;orthogonalLoop=1;jettySize=auto;html=1;exitX=1;exitY=0.5;exitDx=0;exitDy=0;entryX=0;entryY=0.5;entryDx=0;entryDy=0;" edge="1" parent="1" source="IY-vPQJXDDbbcd6xCSo9-54" target="IY-vPQJXDDbbcd6xCSo9-56">
          <mxGeometry relative="1" as="geometry">
            <Array as="points">
              <mxPoint x="420" y="809" />
              <mxPoint x="420" y="763" />
            </Array>
          </mxGeometry>
        </mxCell>
        <mxCell id="IY-vPQJXDDbbcd6xCSo9-54" value="Mamba" style="rounded=1;whiteSpace=wrap;html=1;fillColor=#ffe6cc;strokeColor=#d79b00;" vertex="1" parent="1">
          <mxGeometry x="320" y="789" width="50" height="40" as="geometry" />
        </mxCell>
        <mxCell id="IY-vPQJXDDbbcd6xCSo9-55" value="" style="group" vertex="1" connectable="0" parent="1">
          <mxGeometry x="460" y="752.5" width="20" height="20" as="geometry" />
        </mxCell>
        <mxCell id="IY-vPQJXDDbbcd6xCSo9-56" value="" style="ellipse;whiteSpace=wrap;html=1;aspect=fixed;" vertex="1" parent="IY-vPQJXDDbbcd6xCSo9-55">
          <mxGeometry width="20" height="20" as="geometry" />
        </mxCell>
        <mxCell id="IY-vPQJXDDbbcd6xCSo9-57" value="" style="endArrow=none;html=1;rounded=0;fontColor=#46495D;exitX=1;exitY=0.5;exitDx=0;exitDy=0;entryX=0;entryY=0.5;entryDx=0;entryDy=0;" edge="1" parent="IY-vPQJXDDbbcd6xCSo9-55" source="IY-vPQJXDDbbcd6xCSo9-56" target="IY-vPQJXDDbbcd6xCSo9-56">
          <mxGeometry width="50" height="50" relative="1" as="geometry">
            <mxPoint x="27" y="-187" as="sourcePoint" />
            <mxPoint x="13" y="-173" as="targetPoint" />
          </mxGeometry>
        </mxCell>
        <mxCell id="IY-vPQJXDDbbcd6xCSo9-58" value="" style="endArrow=none;html=1;rounded=0;fontColor=#46495D;exitX=0.5;exitY=0;exitDx=0;exitDy=0;entryX=0.5;entryY=1;entryDx=0;entryDy=0;" edge="1" parent="IY-vPQJXDDbbcd6xCSo9-55" source="IY-vPQJXDDbbcd6xCSo9-56" target="IY-vPQJXDDbbcd6xCSo9-56">
          <mxGeometry width="50" height="50" relative="1" as="geometry">
            <mxPoint x="30" as="sourcePoint" />
            <mxPoint x="10" as="targetPoint" />
            <Array as="points" />
          </mxGeometry>
        </mxCell>
        <mxCell id="IY-vPQJXDDbbcd6xCSo9-87" style="edgeStyle=orthogonalEdgeStyle;rounded=0;orthogonalLoop=1;jettySize=auto;html=1;exitX=0;exitY=0;exitDx=0;exitDy=42;exitPerimeter=0;" edge="1" parent="1">
          <mxGeometry relative="1" as="geometry">
            <mxPoint x="440" y="817" as="targetPoint" />
            <mxPoint x="440" y="817" as="sourcePoint" />
          </mxGeometry>
        </mxCell>
        <mxCell id="IY-vPQJXDDbbcd6xCSo9-60" value="" style="html=1;shadow=0;dashed=0;align=center;verticalAlign=middle;shape=mxgraph.arrows2.uTurnArrow;dy=4.14;arrowHead=20.11;dx2=26.58;fillColor=#ffe6cc;strokeColor=#d79b00;" vertex="1" parent="1">
          <mxGeometry x="284.5" y="765" width="30" height="70" as="geometry" />
        </mxCell>
        <mxCell id="IY-vPQJXDDbbcd6xCSo9-78" style="edgeStyle=orthogonalEdgeStyle;rounded=0;orthogonalLoop=1;jettySize=auto;html=1;exitX=1;exitY=0.5;exitDx=0;exitDy=0;entryX=0;entryY=0.5;entryDx=0;entryDy=0;" edge="1" parent="1" source="IY-vPQJXDDbbcd6xCSo9-77" target="IY-vPQJXDDbbcd6xCSo9-52">
          <mxGeometry relative="1" as="geometry">
            <Array as="points">
              <mxPoint x="270" y="763" />
              <mxPoint x="270" y="722" />
            </Array>
          </mxGeometry>
        </mxCell>
        <mxCell id="IY-vPQJXDDbbcd6xCSo9-79" style="edgeStyle=orthogonalEdgeStyle;rounded=0;orthogonalLoop=1;jettySize=auto;html=1;entryX=0;entryY=0.5;entryDx=0;entryDy=0;" edge="1" parent="1" source="IY-vPQJXDDbbcd6xCSo9-77" target="IY-vPQJXDDbbcd6xCSo9-54">
          <mxGeometry relative="1" as="geometry">
            <Array as="points">
              <mxPoint x="270" y="763" />
              <mxPoint x="270" y="809" />
            </Array>
          </mxGeometry>
        </mxCell>
        <mxCell id="IY-vPQJXDDbbcd6xCSo9-77" value="" style="rounded=1;whiteSpace=wrap;html=1;" vertex="1" parent="1">
          <mxGeometry x="95" y="733" width="120" height="60" as="geometry" />
        </mxCell>
        <mxCell id="IY-vPQJXDDbbcd6xCSo9-82" value="" style="ellipse;whiteSpace=wrap;html=1;aspect=fixed;fillColor=#000000;strokeWidth=0;" vertex="1" parent="1">
          <mxGeometry x="241" y="760" width="5" height="5" as="geometry" />
        </mxCell>
        <mxCell id="IY-vPQJXDDbbcd6xCSo9-89" value="" style="html=1;shadow=0;dashed=0;align=center;verticalAlign=middle;shape=mxgraph.arrows2.uTurnArrow;dy=4.14;arrowHead=20.11;dx2=26.58;fillColor=#d5e8d4;strokeColor=#82b366;rotation=-180;" vertex="1" parent="1">
          <mxGeometry x="375" y="781" width="30" height="70" as="geometry" />
        </mxCell>
      </root>
    </mxGraphModel>
  </diagram>
</mxfile>
